<svg width="28" height="28" viewBox="0 0 28 28" fill="none" xmlns="http://www.w3.org/2000/svg">
<g id="calculator" clip-path="url(#clip0_63_393)">
<path id="Vector" d="M14 1V27M1 14H27M5 7.5H10M18.5 7.5H22.5M18.5 18.5H22.5M18.5 22.5H22.5M7.5 5V10M5.38 18.38L9.62 22.62M9.62 18.38L5.38 22.62M23 1H5C3.93913 1 2.92172 1.42143 2.17157 2.17157C1.42143 2.92172 1 3.93913 1 5V23C1 24.0609 1.42143 25.0783 2.17157 25.8284C2.92172 26.5786 3.93913 27 5 27H23C24.0609 27 25.0783 26.5786 25.8284 25.8284C26.5786 25.0783 27 24.0609 27 23V5C27 3.93913 26.5786 2.92172 25.8284 2.17157C25.0783 1.42143 24.0609 1 23 1Z" stroke="white" stroke-opacity="0.64" stroke-width="2.28571" stroke-linecap="round" stroke-linejoin="round"/>
</g>
<defs>
<clipPath id="clip0_63_393">
<rect width="28" height="28" fill="white"/>
</clipPath>
</defs>
</svg>
