<svg width="45" height="45" viewBox="0 0 45 45" fill="none" xmlns="http://www.w3.org/2000/svg">
<g id="notification">
<g id="Rectangle 39284">
<rect width="45" height="45" rx="22.5" fill="#D9D9D9" fill-opacity="0.14"/>
<rect x="0.5" y="0.5" width="44" height="44" rx="22" stroke="white" stroke-opacity="0.08"/>
</g>
<g id="mynaui:notification-solid">
<path id="Vector" d="M20.9766 13.1562H23.0207C23.2113 13.1562 23.3941 13.232 23.5289 13.3668C23.6637 13.5016 23.7394 13.6844 23.7394 13.875C23.7394 14.0656 23.6637 14.2484 23.5289 14.3832C23.3941 14.518 23.2113 14.5937 23.0207 14.5937H21.0082C19.9234 14.5937 19.1519 14.5937 18.5492 14.6436C17.955 14.6915 17.5861 14.7844 17.2938 14.933C16.7079 15.2315 16.2315 15.7079 15.933 16.2938C15.7844 16.5861 15.6924 16.955 15.6436 17.5492C15.5947 18.1529 15.5937 18.9234 15.5937 20.0082V24.9914C15.5937 26.0772 15.5937 26.8477 15.6436 27.4505C15.6915 28.0446 15.7844 28.4136 15.933 28.7059C16.2315 29.2917 16.7079 29.7681 17.2938 30.0667C17.5861 30.2152 17.955 30.3072 18.5492 30.3561C19.1529 30.405 19.9234 30.4059 21.0082 30.4059H25.9914C27.0772 30.4059 27.8477 30.4059 28.4505 30.3561C29.0446 30.3082 29.4136 30.2152 29.7059 30.0667C30.2917 29.7681 30.7681 29.2917 31.0667 28.7059C31.2152 28.4136 31.3072 28.0446 31.3561 27.4505C31.405 26.8467 31.4059 26.0763 31.4059 24.9914V22.979C31.4059 22.7884 31.4816 22.6055 31.6164 22.4708C31.7512 22.336 31.934 22.2602 32.1247 22.2602C32.3153 22.2602 32.4981 22.336 32.6329 22.4708C32.7677 22.6055 32.8434 22.7884 32.8434 22.979V25.0231C32.8434 26.0695 32.8434 26.8994 32.7888 27.5674C32.7332 28.2516 32.6163 28.8295 32.3479 29.3585C31.9113 30.2147 31.2149 30.9108 30.3585 31.347C29.8295 31.6163 29.2516 31.7332 28.5674 31.7888C27.8994 31.8434 27.0695 31.8434 26.0231 31.8434H20.9766C19.9301 31.8434 19.1002 31.8434 18.4323 31.7888C17.748 31.7332 17.1702 31.6163 16.6421 31.3479C15.7855 30.9115 15.0891 30.2151 14.6527 29.3585C14.3834 28.8295 14.2665 28.2516 14.2109 27.5674C14.1562 26.8994 14.1562 26.0695 14.1562 25.0231V19.9766C14.1562 18.9301 14.1562 18.1002 14.2109 17.4323C14.2665 16.748 14.3834 16.1702 14.6517 15.6421C15.0884 14.7854 15.7852 14.0889 16.6421 13.6527C17.1692 13.3834 17.748 13.2665 18.4323 13.2109C19.1002 13.1562 19.9301 13.1562 20.9766 13.1562ZM26.1352 16.5104C26.1352 16.0699 26.2219 15.6337 26.3905 15.2268C26.5591 14.8199 26.8061 14.4501 27.1176 14.1386C27.429 13.8272 27.7988 13.5801 28.2057 13.4116C28.6127 13.243 29.0488 13.1562 29.4893 13.1562C29.9298 13.1562 30.3659 13.243 30.7728 13.4116C31.1798 13.5801 31.5495 13.8272 31.861 14.1386C32.1725 14.4501 32.4195 14.8199 32.5881 15.2268C32.7566 15.6337 32.8434 16.0699 32.8434 16.5104C32.8434 17.3999 32.49 18.253 31.861 18.8821C31.232 19.5111 30.3789 19.8645 29.4893 19.8645C28.5997 19.8645 27.7466 19.5111 27.1176 18.8821C26.4886 18.253 26.1352 17.3999 26.1352 16.5104Z" fill="white"/>
</g>
</g>
</svg>
