<svg width="20" height="20" viewBox="0 0 20 20" fill="none" xmlns="http://www.w3.org/2000/svg">
<g id="usdt">
<g id="Group">
<path id="Vector" d="M9.5 18C14.1944 18 18 14.1944 18 9.5C18 4.80558 14.1944 1 9.5 1C4.80558 1 1 4.80558 1 9.5C1 14.1944 4.80558 18 9.5 18Z" fill="#26A17B"/>
<path id="Vector_2" fill-rule="evenodd" clip-rule="evenodd" d="M10.5209 10.2347V10.2337C10.4624 10.2379 10.1612 10.256 9.48918 10.256C8.95262 10.256 8.5749 10.2401 8.44209 10.2337V10.2353C6.37659 10.1444 4.8349 9.78478 4.8349 9.35446C4.8349 8.92415 6.37659 8.56503 8.44209 8.47259V9.87721C8.57702 9.88678 8.96377 9.90962 9.49821 9.90962C10.1394 9.90962 10.4608 9.88306 10.5209 9.87774V8.47365C12.5821 8.56556 14.1201 8.92521 14.1201 9.35446C14.1201 9.78478 12.5821 10.1434 10.5209 10.2347ZM10.5209 8.32756V7.07062H13.3971V5.15387H5.5659V7.07062H8.44209V8.32703C6.10459 8.43434 4.34668 8.89759 4.34668 9.45221C4.34668 10.0068 6.10459 10.4696 8.44209 10.5774V14.6053H10.5209V10.5763C12.8546 10.469 14.6083 10.0063 14.6083 9.45221C14.6083 8.89812 12.8546 8.4354 10.5209 8.32756Z" fill="white"/>
</g>
</g>
</svg>
