<svg width="23" height="23" viewBox="0 0 23 23" fill="none" xmlns="http://www.w3.org/2000/svg">
<g id="cpu">
<path id="Vector" fill-rule="evenodd" clip-rule="evenodd" d="M11.0323 2.76587C11.3863 2.76587 11.674 3.05271 11.674 3.40758V5.9726C12.1423 5.97321 12.5698 5.97842 12.9565 5.98823V3.40758C12.9628 3.24171 13.0331 3.08473 13.1527 2.9696C13.2723 2.85447 13.4318 2.79015 13.5978 2.79015C13.7638 2.79015 13.9233 2.85447 14.0429 2.9696C14.1625 3.08473 14.2328 3.24171 14.2391 3.40758V5.9726C14.2384 6.00581 14.2359 6.03895 14.2317 6.07189C15.0922 6.17762 15.6889 6.39642 16.1421 6.84967C16.5954 7.30291 16.8142 7.89958 16.9199 8.7601C16.9528 8.75586 16.986 8.7534 17.0192 8.75275H19.5842C19.7501 8.75903 19.9071 8.82934 20.0222 8.94891C20.1373 9.06848 20.2016 9.22801 20.2016 9.394C20.2016 9.55999 20.1373 9.71952 20.0222 9.83909C19.9071 9.95866 19.7501 10.029 19.5842 10.0353H17.0036C17.014 10.4214 17.0192 10.8489 17.0192 11.3178H19.5842C19.7544 11.3178 19.9176 11.3854 20.038 11.5057C20.1583 11.6261 20.2259 11.7893 20.2259 11.9595C20.2259 12.1297 20.1583 12.2929 20.038 12.4132C19.9176 12.5336 19.7544 12.6012 19.5842 12.6012H17.0192C17.0186 13.0695 17.0134 13.497 17.0036 13.8837H19.5842C19.7501 13.89 19.9071 13.9603 20.0222 14.0799C20.1373 14.1994 20.2016 14.359 20.2016 14.525C20.2016 14.6909 20.1373 14.8505 20.0222 14.97C19.9071 15.0896 19.7501 15.1599 19.5842 15.1662H17.0192C16.986 15.1656 16.9528 15.1631 16.9199 15.1589C16.8142 16.0194 16.5954 16.616 16.1421 17.0693C15.6889 17.5225 15.0922 17.7413 14.2317 17.8471C14.2372 17.8795 14.2397 17.9126 14.2391 17.9464V20.5114C14.2328 20.6772 14.1625 20.8342 14.0429 20.9494C13.9233 21.0645 13.7638 21.1288 13.5978 21.1288C13.4318 21.1288 13.2723 21.0645 13.1527 20.9494C13.0331 20.8342 12.9628 20.6772 12.9565 20.5114V17.9307C12.5704 17.9411 12.1429 17.9464 11.674 17.9464V20.5114C11.674 20.6816 11.6064 20.8448 11.4861 20.9651C11.3657 21.0855 11.2025 21.1531 11.0323 21.1531C10.8621 21.1531 10.6989 21.0855 10.5786 20.9651C10.4582 20.8448 10.3906 20.6816 10.3906 20.5114V17.9464C9.96306 17.9465 9.53552 17.9413 9.1081 17.9307V20.5114C9.10182 20.6772 9.03151 20.8342 8.91194 20.9494C8.79237 21.0645 8.63284 21.1288 8.46685 21.1288C8.30086 21.1288 8.14133 21.0645 8.02175 20.9494C7.90218 20.8342 7.83187 20.6772 7.82559 20.5114V17.9464C7.82559 17.912 7.82804 17.8789 7.83295 17.8471C6.97243 17.7413 6.37576 17.5225 5.92252 17.0693C5.46927 16.616 5.25046 16.0194 5.14474 15.1589C5.1118 15.1631 5.07865 15.1656 5.04545 15.1662H2.48043C2.31456 15.1599 2.15758 15.0896 2.04245 14.97C1.92732 14.8505 1.863 14.6909 1.863 14.525C1.863 14.359 1.92732 14.1994 2.04245 14.0799C2.15758 13.9603 2.31456 13.89 2.48043 13.8837H5.06107C5.05054 13.4563 5.04533 13.0287 5.04545 12.6012H2.48043C2.31024 12.6012 2.14701 12.5336 2.02667 12.4132C1.90632 12.2929 1.83871 12.1297 1.83871 11.9595C1.83871 11.7893 1.90632 11.6261 2.02667 11.5057C2.14701 11.3854 2.31024 11.3178 2.48043 11.3178H5.04545C5.04606 10.8495 5.05127 10.422 5.06107 10.0353H2.48043C2.31456 10.029 2.15758 9.95866 2.04245 9.83909C1.92732 9.71952 1.863 9.55999 1.863 9.394C1.863 9.22801 1.92732 9.06848 2.04245 8.94891C2.15758 8.82934 2.31456 8.75903 2.48043 8.75275H5.04545C5.07977 8.75275 5.11287 8.7552 5.14474 8.7601C5.25046 7.89958 5.46927 7.30291 5.92252 6.84967C6.37576 6.39642 6.97243 6.17762 7.83295 6.07189C7.8287 6.03895 7.82625 6.00581 7.82559 5.9726V3.40758C7.83187 3.24171 7.90218 3.08473 8.02175 2.9696C8.14133 2.85447 8.30086 2.79015 8.46685 2.79015C8.63284 2.79015 8.79237 2.85447 8.91194 2.9696C9.03151 3.08473 9.10182 3.24171 9.1081 3.40758V5.98823C9.49423 5.97781 9.92173 5.9726 10.3906 5.9726V3.40758C10.3906 3.05271 10.6784 2.76587 11.0323 2.76587ZM10.135 7.89682C9.56594 7.89682 9.07592 7.89682 8.68428 7.95014C8.26321 8.00623 7.86053 8.13402 7.53324 8.46039C7.20686 8.78768 7.07907 9.19036 7.02299 9.61143C6.96967 10.004 6.96967 10.494 6.96967 11.0622V12.8568C6.96967 13.4259 6.96967 13.915 7.02299 14.3075C7.07907 14.7286 7.20686 15.1313 7.53324 15.4586C7.86053 15.7849 8.26321 15.9127 8.68428 15.9688C9.07592 16.0221 9.56686 16.0221 10.135 16.0221H11.9296C12.4987 16.0221 12.9878 16.0221 13.3804 15.9688C13.8014 15.9127 14.2041 15.7849 14.5314 15.4586C14.8578 15.1313 14.9856 14.7286 15.0417 14.3075C15.095 13.915 15.095 13.4249 15.095 12.8568V11.0622C15.095 10.4931 15.095 10.004 15.0417 9.61143C14.9856 9.19036 14.8578 8.78768 14.5314 8.46039C14.2041 8.13402 13.8014 8.00623 13.3804 7.95014C12.9878 7.89682 12.4978 7.89682 11.9296 7.89682H10.135Z" fill="white"/>
<path id="Vector_2" opacity="0.5" d="M8.43973 9.36693C8.48937 9.31912 8.57671 9.25844 8.85436 9.22075C9.15131 9.18122 9.55399 9.1803 10.1773 9.1803H11.8873C12.5107 9.1803 12.9133 9.18122 13.2094 9.22075C13.4879 9.25844 13.5753 9.31912 13.6231 9.36785C13.6727 9.41657 13.7334 9.50391 13.7702 9.78156C13.8106 10.0785 13.8116 10.4812 13.8116 11.1045V12.8145C13.8116 13.4379 13.8106 13.8405 13.7702 14.1366C13.7334 14.4151 13.6727 14.5025 13.6231 14.5503C13.5753 14.5999 13.4879 14.6606 13.2094 14.6974C12.9133 14.7378 12.5107 14.7388 11.8873 14.7388H10.1773C9.55399 14.7388 9.15131 14.7378 8.85436 14.6974C8.57671 14.6606 8.48937 14.5999 8.44065 14.5503C8.39192 14.5025 8.33124 14.4151 8.29355 14.1366C8.25402 13.8405 8.2531 13.4379 8.2531 12.8145V11.1045C8.2531 10.4812 8.25402 10.0785 8.29355 9.78248C8.33124 9.50391 8.39192 9.41657 8.44065 9.36785" fill="white"/>
</g>
</svg>
