<svg width="19" height="19" viewBox="0 0 19 19" fill="none" xmlns="http://www.w3.org/2000/svg">
<g id="hexagon" clip-path="url(#clip0_19_622)">
<g id="Group">
<path id="Vector" fill-rule="evenodd" clip-rule="evenodd" d="M10.4613 0.238691L13.4169 1.95082C13.6867 2.10718 13.9108 2.33208 14.0666 2.60291C14.2224 2.87375 14.3044 3.18096 14.3044 3.49369V6.91973L17.26 8.63186C17.5298 8.78823 17.7539 9.01313 17.9097 9.28396C18.0655 9.55479 18.1475 9.86201 18.1475 10.1747V13.6008C18.1475 13.9135 18.0655 14.2207 17.9097 14.4916C17.7539 14.7624 17.5298 14.9873 17.26 15.1437L14.3044 16.8558C14.0346 17.0121 13.7285 17.0945 13.4169 17.0945C13.1053 17.0945 12.7992 17.0121 12.5293 16.8558L9.57376 15.1437L6.61821 16.8558C6.34836 17.0121 6.04225 17.0945 5.73066 17.0945C5.41906 17.0945 5.11295 17.0121 4.8431 16.8558L1.88755 15.1437C1.61771 14.9873 1.39363 14.7624 1.23783 14.4916C1.08203 14.2207 1.00001 13.9135 1 13.6008V10.1747C1.00001 9.86201 1.08203 9.55479 1.23783 9.28396C1.39363 9.01313 1.61771 8.78823 1.88755 8.63186L4.8431 6.91973V3.49369C4.84311 3.18096 4.92514 2.87375 5.08093 2.60291C5.23673 2.33208 5.46081 2.10718 5.73066 1.95082L8.68621 0.238691C8.95606 0.0823217 9.26216 0 9.57376 0C9.88536 0 10.1915 0.0823217 10.4613 0.238691ZM5.73066 8.46261L2.77511 10.1747V13.6008L5.73066 15.3129L8.68621 13.6008V10.1747L5.73066 8.46261ZM16.3724 10.1747L13.4169 8.46261L10.4613 10.1747V13.6008L13.4169 15.3129L16.3724 13.6008V10.1747ZM9.57376 1.78157L6.61821 3.49369V6.91973L9.57376 8.63186L12.5293 6.91973V3.49369L9.57376 1.78157Z" fill="#E22FFF"/>
</g>
</g>
<defs>
<clipPath id="clip0_19_622">
<rect width="19" height="19" fill="white"/>
</clipPath>
</defs>
</svg>
