<svg width="21" height="21" viewBox="0 0 21 21" fill="none" xmlns="http://www.w3.org/2000/svg">
<g id="issues" clip-path="url(#clip0_7_628)">
<path id="Vector" d="M12.2275 15.0905L10.6388 14.473C10.5371 14.4335 10.4243 14.4335 10.3226 14.473L3.75736 17.0259C3.67348 17.0585 3.58157 17.0644 3.49422 17.0428C3.40687 17.0212 3.32833 16.9731 3.26935 16.9051C3.21037 16.8372 3.17382 16.7526 3.16472 16.6631C3.15561 16.5736 3.17439 16.4834 3.21847 16.405L10.1008 4.17048C10.1389 4.10327 10.1941 4.04737 10.2609 4.00848C10.3276 3.96959 10.4035 3.9491 10.4807 3.9491C10.558 3.9491 10.6338 3.96959 10.7006 4.00848C10.7673 4.04737 10.8226 4.10327 10.8607 4.17048L16.1578 13.5857M14.9534 19.5326L16.8067 17.6801M16.8067 17.6801L18.6592 15.8268M16.8067 17.6801L14.9525 15.8259M16.8058 17.6792L18.6583 19.5317" stroke="white" stroke-width="1.1875" stroke-linecap="round" stroke-linejoin="round"/>
</g>
<defs>
<clipPath id="clip0_7_628">
<rect width="20.9614" height="20.9614" fill="white"/>
</clipPath>
</defs>
</svg>
