<svg width="21" height="21" viewBox="0 0 21 21" fill="none" xmlns="http://www.w3.org/2000/svg">
<g id="latest block">
<g id="Group">
<path id="Vector" d="M10.4807 18.3412C10.7253 18.3412 10.9515 18.2303 11.4048 18.0076L15.0486 16.2224C16.6617 15.4319 17.4679 15.0363 17.4679 14.4109V6.55042M10.4807 18.3412C10.2362 18.3412 10.01 18.2303 9.55668 18.0076L5.91289 16.2224C4.29973 15.4319 3.49359 15.0363 3.49359 14.4109V6.55042M10.4807 18.3412V10.4807" stroke="white" stroke-width="1.31009" stroke-linecap="round" stroke-linejoin="round"/>
<path id="Vector_2" d="M9.55668 2.95381C10.0108 2.7311 10.2371 2.62018 10.4807 2.62018C10.7253 2.62018 10.9515 2.7311 11.4048 2.95381L15.0486 4.73903C16.6617 5.52945 17.4679 5.9251 17.4679 6.55045C17.4679 7.17579 16.6617 7.57144 15.0486 8.36186L11.4048 10.1471C10.9506 10.3698 10.7244 10.4807 10.4807 10.4807C10.2362 10.4807 10.01 10.3698 9.55668 10.1471L5.91289 8.36186C4.29973 7.57144 3.49359 7.17579 3.49359 6.55045C3.49359 5.9251 4.29973 5.52945 5.91289 4.73903L9.55668 2.95381Z" stroke="white" stroke-width="1.31009" stroke-linecap="round" stroke-linejoin="round"/>
</g>
</g>
</svg>
