<svg width="19" height="19" viewBox="0 0 19 19" fill="none" xmlns="http://www.w3.org/2000/svg">
<g id="lines">
<path id="Vector" d="M1.60104 6.32713H16.3912C16.7231 6.32713 17 6.03725 17 5.66788C17 5.29888 16.7234 5 16.3912 5H1.60104C1.52211 4.9999 1.44394 5.01711 1.371 5.05063C1.29806 5.08416 1.23179 5.13334 1.17596 5.19537C1.12014 5.25741 1.07586 5.33107 1.04567 5.41215C1.01547 5.49322 0.999956 5.58012 1 5.66788C1.00008 5.75518 1.01575 5.84161 1.04608 5.92214C1.07642 6.00267 1.12082 6.0757 1.17672 6.13702C1.23262 6.19834 1.29891 6.24671 1.37175 6.27934C1.44458 6.31198 1.52252 6.32822 1.60104 6.32713ZM1.60104 10.1592H16.3912C16.7231 10.1592 17 9.869 17 9.5C17 9.122 16.7234 8.82312 16.3912 8.82312H1.60104C1.26881 8.82312 1 9.122 1 9.5C1.00008 9.58731 1.01575 9.67373 1.04608 9.75426C1.07642 9.83479 1.12082 9.90783 1.17672 9.96915C1.23262 10.0305 1.29891 10.0788 1.37175 10.1115C1.44458 10.1441 1.52252 10.1603 1.60104 10.1592ZM1.60104 14H16.3912C16.7231 14 17 13.7011 17 13.3231C17 12.9541 16.7234 12.6639 16.3912 12.6639H1.60104C1.52252 12.6628 1.44458 12.679 1.37175 12.7117C1.29891 12.7443 1.23262 12.7927 1.17672 12.854C1.12082 12.9153 1.07642 12.9883 1.04608 13.0689C1.01575 13.1494 1.00008 13.2358 1 13.3231C1 13.7011 1.26881 14 1.60104 14Z" fill="#E22FFF"/>
</g>
</svg>
