<svg width="22" height="21" viewBox="0 0 22 21" fill="none" xmlns="http://www.w3.org/2000/svg">
<g id="memory" clip-path="url(#clip0_7_593)">
<path id="Vector" fill-rule="evenodd" clip-rule="evenodd" d="M2.70209 9.82567C2.70209 9.30448 2.90913 8.80464 3.27766 8.43611C3.6462 8.06757 4.14604 7.86053 4.66722 7.86053H16.458C16.9792 7.86053 17.479 8.06757 17.8476 8.43611C18.2161 8.80464 18.4232 9.30448 18.4232 9.82567V11.1358C18.4232 11.6569 18.2161 12.1568 17.8476 12.5253C17.479 12.8939 16.9792 13.1009 16.458 13.1009H4.66722C4.14604 13.1009 3.6462 12.8939 3.27766 12.5253C2.90913 12.1568 2.70209 11.6569 2.70209 11.1358V9.82567ZM4.66722 9.17062C4.49349 9.17062 4.32688 9.23964 4.20403 9.36248C4.08119 9.48533 4.01218 9.65194 4.01218 9.82567V11.1358C4.01218 11.3095 4.08119 11.4761 4.20403 11.5989C4.32688 11.7218 4.49349 11.7908 4.66722 11.7908H16.458C16.6318 11.7908 16.7984 11.7218 16.9212 11.5989C17.0441 11.4761 17.1131 11.3095 17.1131 11.1358V9.82567C17.1131 9.65194 17.0441 9.48533 16.9212 9.36248C16.7984 9.23964 16.6318 9.17062 16.458 9.17062H4.66722Z" fill="white"/>
<path id="Vector_2" fill-rule="evenodd" clip-rule="evenodd" d="M5.32227 3.27522C5.32227 3.10149 5.25325 2.93488 5.13041 2.81204C5.00756 2.68919 4.84095 2.62018 4.66722 2.62018C4.49349 2.62018 4.32688 2.68919 4.20403 2.81204C4.08119 2.93488 4.01218 3.10149 4.01218 3.27522V5.24036C1.83743 5.24036 0.0819092 6.99588 0.0819092 9.17062V11.7908C0.0819092 13.9655 1.83743 15.7211 4.01218 15.7211V17.6862C4.01218 17.8599 4.08119 18.0265 4.20403 18.1494C4.32688 18.2722 4.49349 18.3412 4.66722 18.3412C4.84095 18.3412 5.00756 18.2722 5.13041 18.1494C5.25325 18.0265 5.32227 17.8599 5.32227 17.6862V15.7211H7.94244V17.6862C7.94244 17.8599 8.01146 18.0265 8.1343 18.1494C8.25715 18.2722 8.42376 18.3412 8.59749 18.3412C8.77122 18.3412 8.93783 18.2722 9.06067 18.1494C9.18352 18.0265 9.25253 17.8599 9.25253 17.6862V15.7211H11.8727V17.6862C11.8727 17.8599 11.9417 18.0265 12.0646 18.1494C12.1874 18.2722 12.354 18.3412 12.5278 18.3412C12.7015 18.3412 12.8681 18.2722 12.9909 18.1494C13.1138 18.0265 13.1828 17.8599 13.1828 17.6862V15.7211H15.803V17.6862C15.803 17.8599 15.872 18.0265 15.9948 18.1494C16.1177 18.2722 16.2843 18.3412 16.458 18.3412C16.6318 18.3412 16.7984 18.2722 16.9212 18.1494C17.0441 18.0265 17.1131 17.8599 17.1131 17.6862V15.7211C19.2878 15.7211 21.0433 13.9655 21.0433 11.7908V9.17062C21.0433 6.99588 19.2878 5.24036 17.1131 5.24036V3.27522C17.1131 3.10149 17.0441 2.93488 16.9212 2.81204C16.7984 2.68919 16.6318 2.62018 16.458 2.62018C16.2843 2.62018 16.1177 2.68919 15.9948 2.81204C15.872 2.93488 15.803 3.10149 15.803 3.27522V5.24036H13.1828V3.27522C13.1828 3.10149 13.1138 2.93488 12.9909 2.81204C12.8681 2.68919 12.7015 2.62018 12.5278 2.62018C12.354 2.62018 12.1874 2.68919 12.0646 2.81204C11.9417 2.93488 11.8727 3.10149 11.8727 3.27522V5.24036H9.25253V3.27522C9.25253 3.10149 9.18352 2.93488 9.06067 2.81204C8.93783 2.68919 8.77122 2.62018 8.59749 2.62018C8.42376 2.62018 8.25715 2.68919 8.1343 2.81204C8.01146 2.93488 7.94244 3.10149 7.94244 3.27522V5.24036H5.32227V3.27522ZM4.01218 6.55045C2.57108 6.55045 1.392 7.72297 1.392 9.17062V11.7908C1.392 13.2319 2.56453 14.411 4.01218 14.411H17.1131C18.5542 14.411 19.7332 13.2384 19.7332 11.7908V9.17062C19.7332 7.72953 18.5607 6.55045 17.1131 6.55045H4.01218Z" fill="white"/>
</g>
<defs>
<clipPath id="clip0_7_593">
<rect width="20.9614" height="20.9614" fill="white" transform="translate(0.0819092)"/>
</clipPath>
</defs>
</svg>
