<svg width="19" height="19" viewBox="0 0 19 19" fill="none" xmlns="http://www.w3.org/2000/svg">
<g id="node js">
<path id="Vector" d="M8.84611 17.8561C9.04877 17.9661 9.26648 18.0286 9.50002 18.0286C9.73356 18.0286 9.96711 17.9653 10.1539 17.8877L16.3669 14.2682C16.7715 14.0331 17.0209 13.5945 17.0209 13.1243V5.9011C17.0209 5.43164 16.7715 4.99226 16.3669 4.75793L10.1539 1.13843C9.9528 1.03074 9.72818 0.974396 9.50002 0.974396C9.27187 0.974396 9.04725 1.03074 8.84611 1.13843L2.63311 4.75793C2.43371 4.87471 2.26841 5.04172 2.15367 5.2423C2.03894 5.44287 1.97878 5.67002 1.97919 5.9011V13.1243C1.97919 13.5945 2.22856 14.0331 2.63311 14.2682L4.2679 15.2087C5.06194 15.5998 5.34298 15.5998 5.70081 15.5998C6.86852 15.5998 7.53748 14.8794 7.53748 13.6412V6.51226C7.53688 6.46296 7.51713 6.41583 7.48241 6.38082C7.4477 6.34581 7.40073 6.32566 7.35144 6.32464H6.5574C6.50797 6.32546 6.4608 6.34552 6.42592 6.38055C6.39103 6.41558 6.37118 6.46283 6.37056 6.51226V13.6412C6.37056 14.1898 5.79423 14.7385 4.87511 14.2682L3.17856 13.281C3.11523 13.2493 3.08515 13.1718 3.08515 13.1084V5.88606C3.08515 5.82272 3.11602 5.74435 3.17856 5.71347L9.39156 2.10981C9.43748 2.07814 9.51586 2.07814 9.57761 2.10981L15.7914 5.71347C15.8531 5.74514 15.8848 5.80768 15.8848 5.88606V13.1084C15.8848 13.1876 15.8531 13.2493 15.7914 13.281L9.57761 16.9005C9.5309 16.9322 9.45331 16.9322 9.39077 16.9005L7.80348 15.9442C7.75677 15.9125 7.69423 15.8967 7.64752 15.9283C7.21211 16.1793 7.13373 16.2102 6.71336 16.3511C6.61994 16.3828 6.46477 16.4453 6.7759 16.6179L8.84611 17.8561ZM8.14548 10.7429C8.14548 11.8085 8.70598 13.0617 11.4309 13.0617C13.3926 13.0617 14.5295 12.278 14.5295 10.8997C14.5295 9.55226 13.6262 9.19126 11.7111 8.9411C9.77948 8.69014 9.57761 8.54922 9.57761 8.09481C9.57761 7.71876 9.7494 7.21764 11.1815 7.21764C12.4585 7.21764 12.9406 7.49947 13.1282 8.36081C13.1371 8.39998 13.1587 8.43512 13.1896 8.46075C13.2206 8.48638 13.2591 8.50106 13.2992 8.50251H14.1241C14.1716 8.50251 14.2176 8.47085 14.2492 8.43918C14.2795 8.39841 14.2958 8.34902 14.2959 8.29826C14.1716 6.7941 13.1908 6.10535 11.1974 6.10535C9.42244 6.10535 8.36319 6.85743 8.36319 8.12647C8.36319 9.48893 9.42244 9.86497 11.119 10.0376C13.1591 10.2418 13.3151 10.5395 13.3151 10.9464C13.3151 11.651 12.7546 11.9494 11.4467 11.9494C9.79611 11.9494 9.43748 11.5417 9.31319 10.7113C9.31319 10.6178 9.23561 10.5545 9.14219 10.5545H8.33231C8.28275 10.5553 8.23547 10.5755 8.20056 10.6107C8.16565 10.6459 8.14589 10.6934 8.14548 10.7429Z" fill="#E22FFF"/>
</g>
</svg>
