<svg width="21" height="21" viewBox="0 0 21 21" fill="none" xmlns="http://www.w3.org/2000/svg">
<g id="port no" clip-path="url(#clip0_19_697)">
<path id="Vector" d="M6.55042 10.4807H14.411M19.2146 7.86051C19.2146 7.62888 19.1226 7.40673 18.9588 7.24293C18.795 7.07914 18.5729 6.98712 18.3412 6.98712H2.62016C2.38852 6.98712 2.16637 7.07914 2.00258 7.24293C1.83878 7.40673 1.74677 7.62888 1.74677 7.86051V11.3541C1.74677 11.5857 1.83878 11.8079 2.00258 11.9717C2.16637 12.1355 2.38852 12.2275 2.62016 12.2275H3.49355L5.24034 13.9743H15.721L17.4678 12.2275H18.3412C18.5729 12.2275 18.795 12.1355 18.9588 11.9717C19.1226 11.8079 19.2146 11.5857 19.2146 11.3541V7.86051Z" stroke="white" stroke-width="1.74679" stroke-linecap="round" stroke-linejoin="round"/>
</g>
<defs>
<clipPath id="clip0_19_697">
<rect width="20.9614" height="20.9614" fill="white"/>
</clipPath>
</defs>
</svg>
