<svg width="19" height="19" viewBox="0 0 19 19" fill="none" xmlns="http://www.w3.org/2000/svg">
<g id="restart app">
<path id="Vector" d="M14.2678 2.74132C14.3749 2.78569 14.4665 2.86082 14.5309 2.95721C14.5953 3.05361 14.6296 3.16694 14.6296 3.28287V6.59859C14.6296 6.75403 14.5679 6.90311 14.458 7.01302C14.348 7.12294 14.199 7.18469 14.0435 7.18469H10.7278C10.612 7.18458 10.4988 7.15015 10.4025 7.08575C10.3062 7.02134 10.2311 6.92984 10.1868 6.82281C10.1425 6.71578 10.1309 6.59802 10.1535 6.48439C10.176 6.37077 10.2318 6.26639 10.3136 6.18442L11.5655 4.93096C10.4156 4.44941 9.1389 4.36061 7.93335 4.67832C6.72781 4.99603 5.66072 5.70251 4.89746 6.68826C4.1342 7.67402 3.7174 8.88401 3.71166 10.1307C3.70591 11.3774 4.11153 12.5912 4.86567 13.5839C5.6198 14.5767 6.68034 15.293 7.8829 15.6218C9.08547 15.9506 10.3629 15.8736 11.5173 15.4026C12.6716 14.9317 13.6384 14.0932 14.2678 13.017C14.8971 11.9408 15.154 10.6871 14.9985 9.45013C14.9824 9.29755 15.0267 9.14474 15.122 9.02451C15.2174 8.90428 15.356 8.82622 15.5082 8.80709C15.6605 8.78796 15.8141 8.82928 15.9362 8.92219C16.0583 9.0151 16.1391 9.15218 16.1613 9.304C16.3515 10.817 16.0305 12.3502 15.2493 13.6599C14.468 14.9695 13.2714 15.9804 11.8497 16.5319C10.428 17.0833 8.8627 17.1437 7.40271 16.7034C5.94271 16.2632 4.67179 15.3475 3.79198 14.1019C2.91217 12.8564 2.47397 11.3525 2.54704 9.82928C2.62011 8.30609 3.20025 6.85103 4.19525 5.69542C5.19024 4.53981 6.54297 3.74997 8.03841 3.45146C9.53385 3.15294 11.0862 3.36289 12.4486 4.04792L13.6286 2.86792C13.7106 2.78608 13.815 2.73038 13.9286 2.70785C14.0422 2.68532 14.1608 2.69697 14.2678 2.74132Z" fill="white"/>
</g>
</svg>
