<svg width="16" height="16" viewBox="0 0 16 16" fill="none" xmlns="http://www.w3.org/2000/svg">
<g clip-path="url(#clip0_19_664)">
<path d="M13.4737 10.5346V5.48097C13.4735 5.25942 13.4172 5.04181 13.3104 4.85C13.2037 4.65818 13.0502 4.49889 12.8655 4.38812L8.60819 1.86128C8.42327 1.75039 8.21352 1.69202 8 1.69202C7.78648 1.69202 7.57672 1.75039 7.39181 1.86128L3.1345 4.38812C2.94977 4.49889 2.79634 4.65818 2.68959 4.85C2.58284 5.04181 2.52653 5.25942 2.52631 5.48097V10.5346C2.52653 10.7562 2.58284 10.9738 2.68959 11.1656C2.79634 11.3574 2.94977 11.5167 3.1345 11.6275L7.39181 14.1543C7.57672 14.2652 7.78648 14.3236 8 14.3236C8.21352 14.3236 8.42327 14.2652 8.60819 14.1543L12.8655 11.6275C13.0502 11.5167 13.2037 11.3574 13.3104 11.1656C13.4172 10.9738 13.4735 10.7562 13.4737 10.5346Z" stroke="#E22FFF" stroke-width="2" stroke-linecap="round" stroke-linejoin="round"/>
</g>
<defs>
<clipPath id="clip0_19_664">
<rect width="16" height="16" fill="white" transform="translate(0 0.0078125)"/>
</clipPath>
</defs>
</svg>
