<svg width="19" height="19" viewBox="0 0 19 19" fill="none" xmlns="http://www.w3.org/2000/svg">
<g id="server">
<path id="Vector" d="M3.16667 0.791656H15.8333C16.0433 0.791656 16.2447 0.875064 16.3931 1.02353C16.5416 1.172 16.625 1.37336 16.625 1.58332V4.74999C16.625 4.95995 16.5416 5.16132 16.3931 5.30978C16.2447 5.45825 16.0433 5.54166 15.8333 5.54166H3.16667C2.9567 5.54166 2.75534 5.45825 2.60687 5.30978C2.45841 5.16132 2.375 4.95995 2.375 4.74999V1.58332C2.375 1.37336 2.45841 1.172 2.60687 1.02353C2.75534 0.875064 2.9567 0.791656 3.16667 0.791656ZM3.16667 7.12499H15.8333C16.0433 7.12499 16.2447 7.2084 16.3931 7.35686C16.5416 7.50533 16.625 7.70669 16.625 7.91666V11.0833C16.625 11.2933 16.5416 11.4946 16.3931 11.6431C16.2447 11.7916 16.0433 11.875 15.8333 11.875H3.16667C2.9567 11.875 2.75534 11.7916 2.60687 11.6431C2.45841 11.4946 2.375 11.2933 2.375 11.0833V7.91666C2.375 7.70669 2.45841 7.50533 2.60687 7.35686C2.75534 7.2084 2.9567 7.12499 3.16667 7.12499ZM3.16667 13.4583H15.8333C16.0433 13.4583 16.2447 13.5417 16.3931 13.6902C16.5416 13.8387 16.625 14.04 16.625 14.25V17.4167C16.625 17.6266 16.5416 17.828 16.3931 17.9764C16.2447 18.1249 16.0433 18.2083 15.8333 18.2083H3.16667C2.9567 18.2083 2.75534 18.1249 2.60687 17.9764C2.45841 17.828 2.375 17.6266 2.375 17.4167V14.25C2.375 14.04 2.45841 13.8387 2.60687 13.6902C2.75534 13.5417 2.9567 13.4583 3.16667 13.4583ZM7.125 3.95832H7.91667V2.37499H7.125V3.95832ZM7.125 10.2917H7.91667V8.70832H7.125V10.2917ZM7.125 16.625H7.91667V15.0417H7.125V16.625ZM3.95833 2.37499V3.95832H5.54167V2.37499H3.95833ZM3.95833 8.70832V10.2917H5.54167V8.70832H3.95833ZM3.95833 15.0417V16.625H5.54167V15.0417H3.95833Z" fill="#E22FFF"/>
</g>
</svg>
