<svg width="19" height="19" viewBox="0 0 19 19" fill="none" xmlns="http://www.w3.org/2000/svg">
<g id="show error logs" clip-path="url(#clip0_9_671)">
<path id="Vector" d="M15.6353 13.2851H17.1984V11.722H15.6353V13.2851ZM15.6353 5.46947V10.1589H17.1984V5.46947M4.6934 12.5036H8.60122V14.0667H4.6934M4.6934 9.37729H10.9459V10.9404H4.6934M3.13027 1.56165C2.26273 1.56165 1.56714 2.25724 1.56714 3.12478V15.6298C1.56714 16.4973 2.26273 17.1929 3.13027 17.1929H12.509C13.3766 17.1929 14.0722 16.4973 14.0722 15.6298V6.25103L9.38279 1.56165M3.13027 3.12478H8.60122V7.0326H12.509V15.6298H3.13027V3.12478Z" fill="white"/>
<rect id="Rectangle 39335" x="-0.995728" y="-0.00128174" width="16" height="19" fill="#312E3A"/>
<g id="proicons:document">
<g id="Group">
<path id="Vector_2" d="M9.99251 1.99902H3.73999C2.22923 1.99902 1.00452 3.22374 1.00452 4.7345V13.7225C1.00452 15.2333 2.22923 16.458 3.73999 16.458H9.99251C11.5033 16.458 12.728 15.2333 12.728 13.7225V4.7345C12.728 3.22374 11.5033 1.99902 9.99251 1.99902Z" stroke="white" stroke-width="1.0625" stroke-linecap="round" stroke-linejoin="round"/>
<path id="Vector_3" d="M4.13074 5.12921H9.60093M4.13074 8.25504H9.60093M4.13074 11.3809H6.86584" stroke="white" stroke-width="1.0625" stroke-linecap="round" stroke-linejoin="round"/>
</g>
</g>
</g>
<defs>
<clipPath id="clip0_9_671">
<rect width="18.7576" height="18.7576" fill="white" transform="translate(0.00427246 -0.00128174)"/>
</clipPath>
</defs>
</svg>
