<svg width="20" height="20" viewBox="0 0 20 20" fill="none" xmlns="http://www.w3.org/2000/svg">
<g id="storage">
<g id="Group">
<path id="Vector" d="M15.7211 3.30969C16.1386 3.30956 16.5407 3.46724 16.8468 3.75112C17.1529 4.035 17.3405 4.4241 17.3718 4.84043L17.3759 4.96454V8.27424C17.376 8.69174 17.2184 9.09386 16.9345 9.39999C16.6506 9.70612 16.2615 9.89364 15.8452 9.92495L15.7211 9.92909H4.13712C3.71962 9.92922 3.3175 9.77154 3.01137 9.48766C2.70524 9.20378 2.51772 8.81468 2.48641 8.39835L2.48227 8.27424V4.96454C2.48214 4.54704 2.63982 4.14492 2.9237 3.83879C3.20758 3.53266 3.59668 3.34514 4.013 3.31383L4.13712 3.30969H15.7211ZM15.7211 4.96454H4.13712V8.27424H15.7211V4.96454ZM8.27424 5.79197C8.48514 5.7922 8.68798 5.87295 8.84133 6.01773C8.99468 6.1625 9.08697 6.36037 9.09933 6.5709C9.11169 6.78143 9.04319 6.98874 8.90783 7.15046C8.77247 7.31218 8.58047 7.41611 8.37105 7.44102L8.27424 7.44682H6.61939C6.4085 7.44658 6.20565 7.36583 6.0523 7.22105C5.89895 7.07628 5.80667 6.87841 5.79431 6.66788C5.78195 6.45735 5.85045 6.25005 5.9858 6.08832C6.12116 5.9266 6.31317 5.82267 6.52258 5.79776L6.61939 5.79197H8.27424ZM15.7211 10.7565C16.1386 10.7564 16.5407 10.9141 16.8468 11.1979C17.1529 11.4818 17.3405 11.8709 17.3718 12.2872L17.3759 12.4114V15.7211C17.376 16.1386 17.2184 16.5407 16.9345 16.8468C16.6506 17.1529 16.2615 17.3405 15.8452 17.3718L15.7211 17.3759H4.13712C3.71962 17.376 3.3175 17.2184 3.01137 16.9345C2.70524 16.6506 2.51772 16.2615 2.48641 15.8452L2.48227 15.7211V12.4114C2.48214 11.9939 2.63982 11.5917 2.9237 11.2856C3.20758 10.9795 3.59668 10.792 4.013 10.7607L4.13712 10.7565H15.7211ZM15.7211 12.4114H4.13712V15.7211H15.7211V12.4114ZM8.27424 13.2388C8.49369 13.2388 8.70415 13.326 8.85932 13.4811C9.01449 13.6363 9.10167 13.8468 9.10167 14.0662C9.10167 14.2857 9.01449 14.4961 8.85932 14.6513C8.70415 14.8065 8.49369 14.8936 8.27424 14.8936H6.61939C6.39995 14.8936 6.18949 14.8065 6.03432 14.6513C5.87914 14.4961 5.79197 14.2857 5.79197 14.0662C5.79197 13.8468 5.87914 13.6363 6.03432 13.4811C6.18949 13.326 6.39995 13.2388 6.61939 13.2388H8.27424Z" fill="white"/>
</g>
</g>
</svg>
