<svg width="8" height="14" viewBox="0 0 8 14" fill="none" xmlns="http://www.w3.org/2000/svg">
<path d="M7.3052 9.35364C7.37162 9.41983 7.42432 9.49849 7.46028 9.58509C7.49624 9.67169 7.51475 9.76454 7.51475 9.85831C7.51475 9.95208 7.49624 10.0449 7.46028 10.1315C7.42432 10.2181 7.37162 10.2968 7.3052 10.363L4.45529 13.2129C4.3891 13.2793 4.31045 13.332 4.22385 13.368C4.13725 13.4039 4.0444 13.4224 3.95062 13.4224C3.85685 13.4224 3.764 13.4039 3.6774 13.368C3.5908 13.332 3.51215 13.2793 3.44595 13.2129L0.59605 10.363C0.462203 10.2291 0.387009 10.0476 0.387009 9.85831C0.387009 9.66902 0.462203 9.48749 0.59605 9.35364C0.729897 9.2198 0.911432 9.1446 1.10072 9.1446C1.29001 9.1446 1.47154 9.2198 1.60539 9.35364L3.95122 11.6983L6.29704 9.35186C6.36333 9.28573 6.442 9.23332 6.52856 9.19762C6.61512 9.16192 6.70786 9.14363 6.80149 9.14379C6.89512 9.14396 6.9878 9.16258 7.07423 9.19858C7.16066 9.23459 7.23915 9.28728 7.3052 9.35364ZM1.60539 4.66318L3.95122 2.31735L6.29704 4.66377C6.43089 4.79762 6.61243 4.87281 6.80171 4.87281C6.991 4.87281 7.17254 4.79762 7.30639 4.66377C7.44023 4.52992 7.51543 4.34839 7.51543 4.1591C7.51543 3.96981 7.44023 3.78828 7.30639 3.65443L4.45648 0.804525C4.39029 0.738104 4.31164 0.685402 4.22503 0.649442C4.13843 0.613481 4.04558 0.594971 3.95181 0.594971C3.85804 0.594971 3.76519 0.613481 3.67859 0.649442C3.59198 0.685402 3.51333 0.738104 3.44714 0.804525L0.597238 3.65443C0.463391 3.78828 0.388196 3.96981 0.388196 4.1591C0.388196 4.34839 0.463391 4.52992 0.597238 4.66377C0.731084 4.79762 0.91262 4.87281 1.10191 4.87281C1.2912 4.87281 1.47273 4.79762 1.60658 4.66377L1.60539 4.66318Z" fill="white"/>
</svg>
